<?xml version="1.0" encoding="utf-8"?>
<!-- Generator: Adobe Illustrator 21.1.0, SVG Export Plug-In . SVG Version: 6.00 Build 0)  -->
<svg version="1.1" id="Layer_1" xmlns="http://www.w3.org/2000/svg" xmlns:xlink="http://www.w3.org/1999/xlink" x="0px" y="0px"
	 viewBox="0 0 48 24" style="enable-background:new 0 0 48 24;" xml:space="preserve">
<g>
	<path class="st0" d="M23.49042,1.9964c0-0.27417-0.22223-0.4964-0.4964-0.4964h-3.5036v4h4V1.9964z"/>
	<path class="st0" d="M1.59045,22.0036c0,0.27417,0.22223,0.4964,0.49634,0.4964h6.50366v-7h-7V22.0036z"/>
	<path class="st0" d="M13.49042,1.5H9.59045v4.88h-1V1.5H2.08679c-0.27411,0-0.49634,0.22223-0.49634,0.4964V9.62h11.89996V1.5z"/>
	<path class="st0" d="M36.40997,5.47998l-3.81995-3.81C32.35999,1.44,31.97998,1.44,31.75,1.66998L22.79999,10.62h-4.30957v-1h5V6.5
		h-5v-5h-4v15h2.83868l-0.00775,1h-3.83093v-6.88H1.59045v3.88h8v8h13.40356c0.27417,0,0.4964-0.22223,0.4964-0.4964v-2.76312
		L36.40997,6.32996C36.64001,6.08997,36.64001,5.70996,36.40997,5.47998z M23.49042,17.91956L21.59998,19.81L18.25,19.78998
		L18.26385,17.5l0,0l0.00616-1.02002l5.2204-5.2204l6.28961-6.28961l3.32996,3.33002L23.49042,17.91956z M33.77002,7.63L30.44,4.31
		l1.72998-1.73004L35.5,5.89996L33.77002,7.63z"/>
</g>
<path class="st0" d="M43.35445,7.91422V21.5H29.76867L43.35445,7.91422 M27.92542,21.92903
	c-0.2107,0.2107-0.06148,0.57097,0.2365,0.57097h15.68392c0.2809,0,0.50861-0.22771,0.50861-0.50861V6.30748
	c0-0.29798-0.36027-0.44721-0.57097-0.23651L27.92542,21.92903z"/>
<path class="st0" d="M40.40553,14.91914v3.75694h-3.75694L40.40553,14.91914 M35.02304,19.67608h5.87389
	c0.2809,0,0.50861-0.22771,0.50861-0.50861v-5.87389c0-0.29104-0.35188-0.43679-0.55767-0.23099l-6.05582,6.05582
	C34.58625,19.3242,34.732,19.67608,35.02304,19.67608z"/>
</svg>
