<?xml version="1.0" encoding="utf-8"?>
<!-- Generator: Adobe Illustrator 21.1.0, SVG Export Plug-In . SVG Version: 6.00 Build 0)  -->
<svg version="1.1" id="Layer_1" xmlns="http://www.w3.org/2000/svg" xmlns:xlink="http://www.w3.org/1999/xlink" x="0px" y="0px"
	 viewBox="0 0 48 24" style="enable-background:new 0 0 48 24;" xml:space="preserve">
<style type="text/css">
	.st0{fill:#4D4D4D;}
	.st1{fill:#FFFFFF;}
</style>
<g>
	<path class="st0" d="M23.49039,1.99637V5.5h-4v-4h3.50363C23.26816,1.5,23.49039,1.72223,23.49039,1.99637z"/>
	<polygon class="st0" points="18.49039,9.62 18.49039,10.62 23.49039,10.62 23.49039,16.5 14.49039,16.5 14.49039,1.5 18.49039,1.5 
		18.49039,6.5 23.49039,6.5 23.49039,9.62 	"/>
	<path class="st0" d="M8.59043,15.5v7H2.0868c-0.27414,0-0.49637-0.22223-0.49637-0.49637V15.5H8.59043z"/>
	<path class="st0" d="M23.49039,17.5v4.50363c0,0.27414-0.22223,0.49637-0.49637,0.49637H9.59043v-8h-8v-3.88h11.89996v6.88
		H23.49039z"/>
	<path class="st0" d="M13.49039,1.5v8.12H1.59043V1.99637C1.59043,1.72223,1.81266,1.5,2.0868,1.5h6.50363v4.88h1V1.5H13.49039z"/>
</g>
<g>
	<path class="st0" d="M36.40997,5.47998l-3.81995-3.81C32.35999,1.44,31.97998,1.44,31.75,1.66998L17.53998,15.88
		c-0.13,0.13-0.20996,0.31-0.20996,0.5l-0.03003,3.88c0,0.25995,0.21002,0.46997,0.47003,0.46997l3.90997,0.01001
		c0.20001,0.01001,0.38-0.07001,0.52002-0.21002L36.40997,6.32996C36.64001,6.08997,36.64001,5.70996,36.40997,5.47998z
		 M21.59998,19.81L18.25,19.78998l0.02002-3.31L29.78003,4.96997l3.32996,3.33002L21.59998,19.81z M33.77002,7.63L30.44,4.31
		l1.72998-1.73004L35.5,5.89996L33.77002,7.63z"/>
	<polygon class="st1" points="33.10999,8.29999 21.59998,19.81 18.25,19.78998 18.27002,16.47998 29.78003,4.96997 	"/>
</g>
<path class="st0" d="M43.35445,7.91422V21.5H29.76867L43.35445,7.91422 M27.92542,21.92903
	c-0.2107,0.2107-0.06148,0.57097,0.2365,0.57097h15.68392c0.2809,0,0.50861-0.22771,0.50861-0.50861V6.30748
	c0-0.29798-0.36027-0.44721-0.57097-0.23651L27.92542,21.92903z"/>
<path class="st0" d="M40.40553,14.91914v3.75694h-3.75694L40.40553,14.91914 M35.02304,19.67608h5.87389
	c0.2809,0,0.50861-0.22771,0.50861-0.50861v-5.87389c0-0.29104-0.35188-0.43679-0.55767-0.23099l-6.05582,6.05582
	C34.58625,19.3242,34.732,19.67608,35.02304,19.67608z"/>
</svg>
