<?xml version="1.0" encoding="utf-8"?>
<!-- Generator: Adobe Illustrator 21.1.0, SVG Export Plug-In . SVG Version: 6.00 Build 0)  -->
<svg version="1.1" id="Layer_1" xmlns="http://www.w3.org/2000/svg" xmlns:xlink="http://www.w3.org/1999/xlink" x="0px" y="0px"
	 viewBox="0 0 48 24" style="enable-background:new 0 0 48 24;" xml:space="preserve">
<path class="st0" d="M16.39934,20.35485H2.64055c-1.00658,0-1.82257,0.81599-1.82257,1.82257v0
	C0.81798,23.18401,1.63398,24,2.64055,24h13.75878c1.00658,0,1.82257-0.81599,1.82257-1.82257v0
	C18.22191,21.17085,17.40591,20.35485,16.39934,20.35485z"/>
<path class="st0" d="M10.22093,6.59607H3.84411c-0.54047,0-0.9786,0.43814-0.9786,0.9786v7.21148v3.11644
	c0,0.54047,0.43814,0.97861,0.9786,0.97861h11.35168c0.54047,0,0.9786-0.43814,0.9786-0.97861V15.2011
	c0-0.27058-0.08157-0.53488-0.23407-0.7584l-5.147-7.54422C10.66423,6.70927,10.44998,6.59607,10.22093,6.59607z M3.88926,7.61983
	h6.15687l4.88917,7.16632H3.88926V7.61983z"/>
<rect x="6.10158" y="17.85744" class="st0" width="2.90649" height="4.09504"/>
<path class="st0" d="M24.14196,1.23108l-0.93982-1.03986c-0.18031-0.1995-0.48196-0.23109-0.69968-0.07328L11.16537,8.33535
	l3.52674,4.70802L23.3622,2.67574v8.59577h1.02376l-0.02089-9.46239C24.36469,1.59549,24.2852,1.38957,24.14196,1.23108z"/>
<path class="st0" d="M39.22554,9.04838v6.85911h-6.85917c-0.17035,0-0.30845,0.1381-0.30845,0.30845v7.4756
	c0,0.17035,0.1381,0.30845,0.30845,0.30845h6.85917h0.92482h6.85917c0.17035,0,0.30845-0.1381,0.30845-0.30845v-6.85917v-0.92488
	V9.04838c0-0.17035-0.1381-0.30845-0.30845-0.30845h-7.47554C39.36364,8.73993,39.22554,8.87803,39.22554,9.04838z
	 M39.22554,23.07512h-6.24281v-6.24275h6.24281V23.07512z M46.3931,23.07512h-6.24274v-6.24275h6.24274V23.07512z
	 M40.15036,15.90749V9.66475h6.24274v6.24275H40.15036z"/>
<path class="st0" d="M27.17134,18.8434h-6.56149c-0.42616,0-0.77164-0.34547-0.77164-0.77164v-6.56149
	c0-0.42616,0.34547-0.77164,0.77164-0.77164h6.56149c0.42616,0,0.77164,0.34547,0.77164,0.77164v6.56149
	C27.94298,18.49793,27.59751,18.8434,27.17134,18.8434z M20.76447,17.91715h6.25225V11.6649h-6.25225V17.91715z"/>
</svg>
