<?xml version="1.0" encoding="utf-8"?>
<!-- Generator: Adobe Illustrator 21.1.0, SVG Export Plug-In . SVG Version: 6.00 Build 0)  -->
<svg version="1.1" id="Layer_1" xmlns="http://www.w3.org/2000/svg" xmlns:xlink="http://www.w3.org/1999/xlink" x="0px" y="0px"
	 viewBox="0 0 48 24" style="enable-background:new 0 0 48 24;" xml:space="preserve">
<path class="st0" d="M47.48835,18.57494h-2.88927v-5.11145c0-0.39393-0.31932-0.71326-0.71326-0.71326H41.0359V6.3372
	c0-0.39393-0.31932-0.71326-0.71326-0.71326h-6.71777c-0.39394,0-0.71326,0.31932-0.71326,0.71326v6.41303h-2.84992
	c-0.39386,0-0.71319,0.31932-0.71319,0.71326v5.11145h-4.69195c-0.47258,0-0.77994,0.49736-0.56864,0.92003l0.91302,1.82597
	c0.58011,1.16028,1.76595,1.89315,3.06313,1.89315h19.44428C47.77093,23.2141,48,22.98503,48,22.70244V19.0866
	C48,18.80401,47.77093,18.57494,47.48835,18.57494z M41.0359,13.76823h2.54511v4.80671h-6.10822v-4.80671H41.0359z
	 M33.90961,6.64202h6.10829v6.10822h-2.54511h-1.01807h-2.54511V6.64202z M30.3465,13.76823h2.54511h3.56311v4.80671H30.3465
	V13.76823z"/>
<path class="st0" d="M21.6296,16.80604h-1.68166l-2.13602-6.40806h-5.34005V5.05794h0.78784
	c0.15475,0,0.28017-0.12542,0.28017-0.28024V4.27016c0-0.15482-0.12542-0.28024-0.28017-0.28024h-0.78784h-1.06801V1.85391h-1.06801
	v2.13602H9.26785V0.7859H8.19984v3.20403H4.99581H4.20804c-0.15482,0-0.28024,0.12542-0.28024,0.28024V4.7777
	c0,0.15482,0.12542,0.28024,0.28024,0.28024h0.78777v3.20403v2.13602v1.06801v5.34005H0.58618
	c-0.43518,0-0.71822,0.458-0.52364,0.84723l1.90878,3.8175c0.5342,1.06847,1.6262,1.74334,2.82073,1.74334H21.6296
	c0.26022,0,0.47117-0.21094,0.47117-0.47117v-5.46572C22.10077,17.01698,21.88983,16.80604,21.6296,16.80604z M12.47188,16.80604
	h-2.13602v-3.20403h2.13602V16.80604z M8.19984,5.05794h1.06801v2.13602H6.06382V5.05794H8.19984z M6.06382,8.26197h4.27204V5.05794
	h1.06801v5.34005H6.06382V8.26197z M6.06382,11.46599h6.40806h4.57026l1.77997,5.34005h-5.28223v-4.27204H9.26785v4.27204H6.06382
	V11.46599z"/>
</svg>
