<?xml version="1.0" encoding="utf-8"?>
<!-- Generator: Adobe Illustrator 21.1.0, SVG Export Plug-In . SVG Version: 6.00 Build 0)  -->
<svg version="1.1" id="Layer_1" xmlns="http://www.w3.org/2000/svg" xmlns:xlink="http://www.w3.org/1999/xlink" x="0px" y="0px"
	 viewBox="0 0 48 24" style="enable-background:new 0 0 48 24;" xml:space="preserve">
<style type="text/css">
	.st0{fill:#4D4D4D;}
	.st1{fill:#FFFFFF;}
</style>
<path class="st0" d="M22.55884,16H0.88689c-0.40747,0-0.67248,0.42881-0.49026,0.79325l1.78722,3.57445
	C2.68404,21.36808,3.70651,22,4.82497,22h17.73387C22.80248,22,23,21.80248,23,21.55884v-5.11768
	C23,16.19752,22.80248,16,22.55884,16z"/>
<path class="st0" d="M46.80884,18H25.13689c-0.40747,0-0.67248,0.42881-0.49026,0.79325l0.78722,1.57445
	C25.93404,21.36808,26.95651,22,28.07497,22h18.73387c0.24365,0,0.44116-0.19752,0.44116-0.44116v-3.11768
	C47.25,18.19752,47.05249,18,46.80884,18z"/>
<path class="st0" d="M17.27924,11l2.33333,7H7v-7H17.27924 M18,10H6v9h15L18,10L18,10z"/>
<path class="st0" d="M12,5v5H7V5H12 M13,4H6v7h7V4L13,4z"/>
<rect x="9" y="1" class="st0" width="1" height="4"/>
<rect x="11" y="2" class="st0" width="1" height="3"/>
<path class="st0" d="M11,8H6V4h5V8z M7,7h3V5H7V7z"/>
<path class="st0" d="M14,17h-4v-5h4V17z M11,16h2v-3h-2V16z"/>
<path class="st0" d="M40.26111,12.97778V7.44831c0-0.33964-0.27533-0.61497-0.61497-0.61497h-5.79227
	c-0.33964,0-0.61497,0.27533-0.61497,0.61497v5.52947h-2.45725c-0.33964,0-0.61497,0.27533-0.61497,0.61497V20h6.14445h0.87778
	h6.14444v-6.40725c0-0.33964-0.27533-0.61497-0.61497-0.61497H40.26111z M34.11666,7.71111h5.26667v5.26667h-2.19445h-0.87778
	h-2.19445V7.71111z M36.31111,19.12222h-5.26667v-5.26667h2.19444h3.07222V19.12222z M42.45555,19.12222h-5.26667v-5.26667h3.07222
	h2.19444V19.12222z"/>
<path class="st0" d="M13.73764,5H5.26236C5.11746,5,5,4.88254,5,4.73764V4.26236C5,4.11746,5.11746,4,5.26236,4h8.47528
	C13.88254,4,14,4.11746,14,4.26236v0.47528C14,4.88254,13.88254,5,13.73764,5z"/>
</svg>
