<svg xmlns="http://www.w3.org/2000/svg" viewBox="0 0 640 512"><path d="M592 0H272c-26.51 0-48 21.49-48 48v48h-44.118a48 48 0 0 0-33.941 14.059l-99.882 99.882A48 48 0 0 0 32 243.882V368H20c-6.627 0-12 5.373-12 12v24c0 6.627 5.373 12 12 12h44c0 53.019 42.981 96 96 96s96-42.981 96-96h128c0 53.019 42.981 96 96 96s96-42.981 96-96h16c26.51 0 48-21.49 48-48V48c0-26.51-21.49-48-48-48zM160 464c-26.467 0-48-21.533-48-48s21.533-48 48-48 48 21.533 48 48-21.533 48-48 48zm64-119.547C207.015 329.249 184.589 320 160 320c-33.395 0-62.802 17.055-80 42.926V243.882L179.882 144H224v200.453zM480 464c-26.467 0-48-21.533-48-48s21.533-48 48-48 48 21.533 48 48-21.533 48-48 48zm112-96h-28.846c-16.599-28.694-47.621-48-83.154-48s-66.555 19.306-83.154 48H272V48h320v320zM112 256l80-80v80h-80z"/></svg>